<svg width="198" height="198" xmlns="http://www.w3.org/2000/svg" xmlns:xlink="http://www.w3.org/1999/xlink" overflow="hidden"><defs><clipPath id="clip0"><rect x="808" y="714" width="198" height="198"/></clipPath><clipPath id="clip1"><rect x="809" y="715" width="197" height="196"/></clipPath><clipPath id="clip2"><rect x="809" y="715" width="197" height="196"/></clipPath><clipPath id="clip3"><rect x="809" y="715" width="197" height="196"/></clipPath></defs><g clip-path="url(#clip0)" transform="translate(-808 -714)"><g clip-path="url(#clip1)"><g clip-path="url(#clip2)"><g clip-path="url(#clip3)"><path d="M189.875 171.5C189.875 178.246 184.381 183.75 177.627 183.75L30.625 183.75C23.8688 183.75 18.375 178.248 18.375 171.5L18.375 49C18.375 45.621 21.121 42.875 24.5 42.875L30.625 42.875 30.625 165.375C30.625 168.761 33.3608 171.5 36.75 171.5 40.1392 171.5 42.875 168.761 42.875 165.375L42.875 18.375C42.875 14.996 45.621 12.25 49 12.25L183.75 12.25C187.129 12.25 189.875 14.996 189.875 18.375L189.875 171.5Z" fill="#FFFEE6" fill-rule="evenodd" transform="matrix(1.0051 0 0 1 809 715)"/><path d="M177.625 0 42.875 0C32.7245 0 24.5 8.21941 24.5 18.375L24.5 30.625 18.375 30.625C8.22451 30.625 0 38.8444 0 49L0 171.5C0 185.029 10.9706 196 24.5 196L171.5 196C185.029 196 196 185.029 196 171.5L196 18.375C196 8.21941 187.775 0 177.625 0M183.75 171.5C183.75 178.246 178.256 183.75 171.5 183.75L24.5 183.75C17.7438 183.75 12.25 178.248 12.25 171.5L12.25 49C12.25 45.621 14.996 42.875 18.375 42.875L24.5 42.875 24.5 165.375C24.5 168.761 27.2358 171.5 30.625 171.5 34.0142 171.5 36.75 168.761 36.75 165.375L36.75 18.375C36.75 14.996 39.496 12.25 42.875 12.25L177.625 12.25C181.004 12.25 183.75 14.996 183.75 18.375L183.75 171.5Z" fill="#252827" fill-rule="evenodd" transform="matrix(1.0051 0 0 1 809 715)"/><path d="M119.432 79.6607 168.432 79.6607C170.122 79.6607 171.495 78.2843 171.495 76.5982 171.495 74.9053 170.122 73.5357 168.432 73.5357L119.432 73.5357C117.743 73.5357 116.37 74.9053 116.37 76.5982 116.368 78.286 117.743 79.6607 119.432 79.6607" fill="#252827" fill-rule="evenodd" transform="matrix(1.0051 0 0 1 809 715)"/><path d="M119.432 61.2857 168.432 61.2857C170.122 61.2857 171.495 59.9093 171.495 58.2232 171.495 56.5303 170.122 55.1607 168.432 55.1607L119.432 55.1607C117.743 55.1607 116.37 56.5303 116.37 58.2232 116.368 59.9093 117.743 61.2857 119.432 61.2857" fill="#252827" fill-rule="evenodd" transform="matrix(1.0051 0 0 1 809 715)"/><path d="M119.432 42.9107 168.432 42.9107C170.122 42.9107 171.495 41.5343 171.495 39.8482 171.495 38.1553 170.122 36.7857 168.432 36.7857L119.432 36.7857C117.743 36.7857 116.37 38.1553 116.37 39.8482 116.368 41.536 117.743 42.9107 119.432 42.9107" fill="#252827" fill-rule="evenodd" transform="matrix(1.0051 0 0 1 809 715)"/><path d="M101.062 165.399 52.0625 165.399C50.373 165.399 49 166.775 49 168.461 49 170.161 50.373 171.524 52.0625 171.524L101.062 171.524C102.752 171.524 104.125 170.161 104.125 168.461 104.125 166.775 102.754 165.399 101.062 165.399" fill="#252827" fill-rule="evenodd" transform="matrix(1.0051 0 0 1 809 715)"/><path d="M101.062 147.024 52.0625 147.024C50.373 147.024 49 148.4 49 150.086 49 151.784 50.373 153.149 52.0625 153.149L101.062 153.149C102.752 153.149 104.125 151.784 104.125 150.086 104.125 148.4 102.754 147.024 101.062 147.024" fill="#252827" fill-rule="evenodd" transform="matrix(1.0051 0 0 1 809 715)"/><path d="M101.062 128.649 52.0625 128.649C50.373 128.649 49 130.025 49 131.711 49 133.411 50.373 134.774 52.0625 134.774L101.062 134.774C102.752 134.774 104.125 133.409 104.125 131.711 104.125 130.025 102.754 128.649 101.062 128.649" fill="#252827" fill-rule="evenodd" transform="matrix(1.0051 0 0 1 809 715)"/><path d="M168.438 165.399 119.437 165.399C117.748 165.399 116.375 166.775 116.375 168.461 116.375 170.161 117.748 171.524 119.437 171.524L168.438 171.524C170.127 171.524 171.5 170.161 171.5 168.461 171.5 166.775 170.127 165.399 168.438 165.399" fill="#252827" fill-rule="evenodd" transform="matrix(1.0051 0 0 1 809 715)"/><path d="M168.438 147.024 119.437 147.024C117.748 147.024 116.375 148.4 116.375 150.086 116.375 151.784 117.748 153.149 119.437 153.149L168.438 153.149C170.127 153.149 171.5 151.784 171.5 150.086 171.5 148.4 170.127 147.024 168.438 147.024" fill="#252827" fill-rule="evenodd" transform="matrix(1.0051 0 0 1 809 715)"/><path d="M168.438 128.649 119.437 128.649C117.748 128.649 116.375 130.025 116.375 131.711 116.375 133.411 117.748 134.774 119.437 134.774L168.438 134.774C170.127 134.774 171.5 133.409 171.5 131.711 171.5 130.025 170.127 128.649 168.438 128.649" fill="#252827" fill-rule="evenodd" transform="matrix(1.0051 0 0 1 809 715)"/><path d="M168.438 91.8988 52.0625 91.8988C50.373 91.8988 49 93.2752 49 94.9613 49 96.6542 50.373 98.0238 52.0625 98.0238L168.438 98.0238C170.127 98.0238 171.5 96.6542 171.5 94.9613 171.5 93.2752 170.127 91.8988 168.438 91.8988" fill="#252827" fill-rule="evenodd" transform="matrix(1.0051 0 0 1 809 715)"/><path d="M168.438 110.274 52.0625 110.274C50.373 110.274 49 111.65 49 113.336 49 115.036 50.373 116.399 52.0625 116.399L168.438 116.399C170.127 116.399 171.5 115.036 171.5 113.336 171.5 111.65 170.127 110.274 168.438 110.274" fill="#252827" fill-rule="evenodd" transform="matrix(1.0051 0 0 1 809 715)"/><path d="M55.125 79.625 98 79.625C101.389 79.625 104.125 76.879 104.125 73.5L104.125 30.6488C104.125 27.2699 101.389 24.5238 98 24.5238L55.125 24.5238C51.7358 24.5238 49 27.2699 49 30.6488L49 73.5C49 76.8807 51.7375 79.625 55.125 79.625M61.25 36.75 91.875 36.75 91.875 67.375 61.25 67.375 61.25 36.75Z" fill="#252827" fill-rule="evenodd" transform="matrix(1.0051 0 0 1 809 715)"/></g></g></g></g></svg>