<svg width="198" height="198" xmlns="http://www.w3.org/2000/svg" xmlns:xlink="http://www.w3.org/1999/xlink" overflow="hidden"><defs><clipPath id="clip0"><rect x="808" y="107" width="198" height="198"/></clipPath><clipPath id="clip1"><rect x="809" y="108" width="197" height="197"/></clipPath><clipPath id="clip2"><rect x="809" y="108" width="197" height="197"/></clipPath><clipPath id="clip3"><rect x="809" y="108" width="197" height="197"/></clipPath></defs><g clip-path="url(#clip0)" transform="translate(-808 -107)"><g clip-path="url(#clip1)"><g clip-path="url(#clip2)"><g clip-path="url(#clip3)"><path d="M844.673 296.943C842.69 298.993 839.949 300.286 836.882 300.286 830.882 300.286 826.018 295.421 826.018 289.427 826.018 286.361 827.311 283.613 829.362 281.635L829.307 281.589 878.965 231.93C883.305 237.785 888.477 242.955 894.32 247.307L844.673 296.943Z" fill="#FFFEE6"/><path d="M938.28 249.593C904.283 249.593 876.718 222.022 876.718 188.031 876.718 154.034 904.283 126.469 938.28 126.469 972.278 126.469 999.846 154.034 999.846 188.031 999.846 222.022 972.276 249.593 938.28 249.593" fill="#FFFEE6"/><path d="M896.314 193.015C896.314 194.794 894.871 196.236 893.092 196.236 891.313 196.236 889.87 194.794 889.87 193.015 889.87 191.235 891.313 189.793 893.092 189.793 894.871 189.793 896.314 191.235 896.314 193.015Z" fill="#252827"/><path d="M932.124 108.001C891.327 108.001 858.251 141.078 858.251 181.875 858.251 194.343 861.37 206.084 866.836 216.391L815.469 267.749 815.51 267.785C811.502 271.735 809 277.201 809 283.273 809 295.272 818.727 304.999 830.726 304.999 836.794 304.999 842.264 302.497 846.207 298.482L846.197 298.468 897.543 247.133C907.858 252.61 919.618 255.746 932.124 255.746 972.921 255.746 1006 222.67 1006 181.874 1006 141.077 972.921 108.001 932.124 108.001M838.519 290.789C836.535 292.837 833.792 294.13 830.726 294.13 824.727 294.13 819.864 289.265 819.864 283.273 819.864 280.207 821.157 277.459 823.205 275.48L823.151 275.432 872.809 225.774C877.151 231.631 882.32 236.8 888.164 241.153L838.519 290.789ZM932.124 243.437C898.126 243.437 870.562 215.866 870.562 181.875 870.562 147.878 898.126 120.313 932.124 120.313 966.122 120.313 993.688 147.878 993.688 181.875 993.688 215.866 966.122 243.437 932.124 243.437" fill="#252827"/><path d="M932.124 138.782C908.323 138.782 889.032 158.068 889.032 181.875 889.032 183.57 890.409 184.953 892.109 184.953 893.812 184.953 895.188 183.57 895.188 181.875 895.188 161.476 911.728 144.938 932.126 144.938 933.827 144.938 935.205 143.555 935.205 141.858 935.204 140.16 933.825 138.782 932.124 138.782" fill="#252827"/><path d="M932.124 138.782C908.323 138.782 889.032 158.068 889.032 181.875 889.032 183.57 890.409 184.953 892.109 184.953 893.812 184.953 895.188 183.57 895.188 181.875 895.188 161.476 911.728 144.938 932.126 144.938 933.827 144.938 935.205 143.555 935.205 141.858 935.204 140.16 933.825 138.782 932.124 138.782" fill="#252827"/></g></g></g></g></svg>