<svg width="136" height="198" xmlns="http://www.w3.org/2000/svg" xmlns:xlink="http://www.w3.org/1999/xlink" overflow="hidden"><defs><clipPath id="clip0"><rect x="839" y="411" width="136" height="198"/></clipPath><clipPath id="clip1"><rect x="840" y="411" width="135" height="197"/></clipPath><clipPath id="clip2"><rect x="840" y="411" width="135" height="197"/></clipPath><clipPath id="clip3"><rect x="840" y="411" width="135" height="197"/></clipPath></defs><g clip-path="url(#clip0)" transform="translate(-839 -411)"><g clip-path="url(#clip1)"><g clip-path="url(#clip2)"><g clip-path="url(#clip3)"><path d="M74.9277 6.14837C43.4255 6.14837 17.8911 33.6396 17.8911 67.5537 17.8911 90.0557 37.0164 113.903 43.9795 134.85 54.3655 166.09 53.2149 184.787 74.9277 184.787 96.966 184.787 95.4881 166.173 105.876 134.976 112.868 113.988 131.966 89.8818 131.966 67.5537 131.966 33.6396 106.431 6.14837 74.9277 6.14837" fill="#FFFEE6" transform="matrix(1 0 0 1.00245 840 411.077)"/><path d="M67.5008 0C30.2203 0 0 30.2203 0 67.5008 0 92.2392 22.6332 118.454 30.8731 141.477 43.163 175.816 41.8028 196.366 67.4991 196.366 93.579 196.366 91.8284 175.908 104.125 141.617 112.396 118.542 135 92.0466 135 67.5008 135 30.2203 104.781 0 67.5008 0M83.4113 166.763 52.9796 166.763 49.3131 159.147C49.2944 159.092 85.6681 159.147 85.6681 159.147 85.1295 160.962 86.1147 157.732 85.617 159.432 84.8124 162.193 84.088 164.584 83.4113 166.763M47.4739 152.77C46.3591 149.081 45.0994 145.261 43.6983 141.138L91.3512 141.138C90.6028 143.34 88.2795 150.684 87.625 152.77L47.4739 152.77ZM67.5008 184.093C61.286 184.093 58.4223 180.13 55.2467 173.172L81.255 173.172C77.4896 183.314 74.7453 184.093 67.5008 184.093M96.1683 128.865 38.8965 128.865C35.8402 122.243 32.1737 115.611 28.5549 109.125 20.5486 94.7961 12.2712 79.9766 12.2712 67.5008 12.2712 37.0471 37.0454 12.2729 67.4991 12.2729 97.9529 12.2729 122.729 37.0471 122.729 67.5008 122.729 79.8845 114.453 94.7824 106.433 109.198 102.845 115.667 99.2075 122.274 96.1683 128.865" fill="#252827" transform="matrix(1 0 0 1.00245 840 411.077)"/><path d="M67.5008 30.6822C47.196 30.6822 30.6822 47.196 30.6822 67.5008 30.6822 69.1935 32.0544 70.5691 33.7504 70.5691 35.4465 70.5691 36.8186 69.1935 36.8186 67.5008 36.8186 50.5847 50.583 36.8186 67.5008 36.8186 69.1969 36.8186 70.5691 35.4431 70.5691 33.7504 70.5691 32.0578 69.1969 30.6822 67.5008 30.6822" fill="#252827" transform="matrix(1 0 0 1.00245 840 411.077)"/><path d="M37.105 78.0521C37.105 79.8257 35.6672 81.2635 33.8936 81.2635 32.12 81.2635 30.6822 79.8257 30.6822 78.0521 30.6822 76.2785 32.12 74.8407 33.8936 74.8407 35.6672 74.8407 37.105 76.2785 37.105 78.0521Z" fill="#252827" transform="matrix(1 0 0 1.00245 840 411.077)"/></g></g></g></g></svg>