<svg width="78" height="64" fill="none" xmlns="http://www.w3.org/2000/svg"><path d="M73.607 18.535L56.515 2.583C54.161.38 50.438.456 48.16 2.81L21.193 30.84l-3.342 7.748h13.37" stroke="#EEB93A" stroke-width="2" stroke-miterlimit="10" stroke-linecap="round"/><path d="M45.729 5.317L76.645 38.59 58.718 58.413 21.193 30.84" stroke="#EEB93A" stroke-width="2" stroke-miterlimit="10" stroke-linecap="round"/><path d="M38.968 24.687l5.47-5.773 20.889 19.674-4.102 4.634M54.54 28.41l-5.24 5.849M44.97 28.79l4.329-5.318M54.996 38.816l4.33-4.558" stroke="#EEB93A" stroke-width="2" stroke-miterlimit="10" stroke-linecap="round"/><path d="M15.04 34.258S-.38 45.728.987 62.288M9.723 62.289s-.76-9.344 4.558-18.611M20.054 43.678s-3.039 10.635 0 18.61" stroke="#fff" stroke-width="2" stroke-miterlimit="10" stroke-linecap="round"/></svg>