<svg width="88" height="70" fill="none" xmlns="http://www.w3.org/2000/svg"><path d="M18.25 53.533c-15.75.25-13.083-21.666-12.583-26 .25-2.5-1.667-3.833-3.25-4.583-1.167-.5-1.667-1.833-1.167-3 .584-1.167 2.084-1.667 3.25-.917 2.167 1.417 5.167 3.334 5.917 7.417 1.167 6.583.5 11.083 3.417 13.583M62.25 25.867s16.917-9.75 22.833 2.833c6.417 13.75-5 21.75-19.083 24.833M28.084 61.283v3.667c0 .666.416 1.25 1 1.5 3.083 1.25 12.666 4.25 23.833 0 .583-.25 1-.834 1-1.5v-2.584" stroke="#EEB93A" stroke-width="2" stroke-miterlimit="10" stroke-linecap="round"/><path d="M26 16.117s4.75 26.916 5.333 39.083c0 0 8.834 3.75 18.834 0C50.75 43.033 55.5 16.117 55.5 16.117" stroke="#fff" stroke-width="2" stroke-miterlimit="10" stroke-linecap="round"/><path clip-rule="evenodd" d="M57.75 13.033c.167 2.917-4.417 2.084-6.083 1.834-3.584-.584-7.084-1.917-10.75-1.917-3.917 0-7.667 1.25-11.5 1.917-1.667.25-5.834 1-5.667-1.834.167-2.916 5.667-3.75 7.75-4.166 5.333-1.084 10.75-1.25 16.083-.417C50 8.783 57.5 9.533 57.75 13.033z" stroke="#fff" stroke-width="2" stroke-miterlimit="10" stroke-linecap="round"/><path d="M41.084 7.867a3 3 0 100-6 3 3 0 000 6z" stroke="#fff" stroke-width="2" stroke-miterlimit="10" stroke-linecap="round"/><path d="M41.334 64.117c15.187 0 27.5-10.373 27.5-23.167 0-12.795-12.313-23.167-27.5-23.167-15.188 0-27.5 10.372-27.5 23.167 0 12.794 12.312 23.166 27.5 23.166z" stroke="#EEB93A" stroke-width="2" stroke-miterlimit="10" stroke-linecap="round"/><path d="M36.25 37.367a1.667 1.667 0 100-3.334 1.667 1.667 0 000 3.334zM34.667 43.45a1.667 1.667 0 100-3.333 1.667 1.667 0 000 3.333zM45.667 45.95a1.667 1.667 0 100-3.333 1.667 1.667 0 000 3.333zM45 52.367a1.667 1.667 0 100-3.334 1.667 1.667 0 000 3.334zM40.75 41.7a1.667 1.667 0 100-3.333 1.667 1.667 0 000 3.333zM36.25 52.367a1.667 1.667 0 100-3.334 1.667 1.667 0 000 3.334zM46.583 39.533a1.667 1.667 0 100-3.333 1.667 1.667 0 000 3.333zM39.667 47.45a1.667 1.667 0 100-3.333 1.667 1.667 0 000 3.333z" fill="#EEB93A"/></svg>