<svg width="83" height="73" fill="none" xmlns="http://www.w3.org/2000/svg"><path d="M56.479 22.873c.652-4.276.163-8.39-1.468-11.78a.978.978 0 00.408-.402c2.038-1.937 2.12-5.164.163-7.181-1.957-2.017-5.219-2.098-7.257-.161l-.57.564c-8.97-4.437-22.75-1.13-33.432 8.875C3.723 22.793-.436 36.266 3.64 45.383c-.407.242-.734.484-1.06.726-2.038 1.937-2.12 5.164-.163 7.181 1.957 2.017 5.219 2.098 7.257.161.245-.242.49-.484.734-.806 6.115 3.388 14.677 2.985 22.913-.888" stroke="#EEB93A" stroke-width="2" stroke-miterlimit="10" stroke-linecap="round"/><path d="M57.5 71.945c13.531 0 24.5-10.745 24.5-24s-10.969-24-24.5-24S33 34.69 33 47.945s10.969 24 24.5 24z" stroke="#EEB93A" stroke-width="2" stroke-miterlimit="10" stroke-linecap="round"/><path d="M57.5 65.945c10.217 0 18.5-8.059 18.5-18 0-9.94-8.283-18-18.5-18s-18.5 8.06-18.5 18c0 9.941 8.283 18 18.5 18z" stroke="#fff" stroke-width="2" stroke-miterlimit="10" stroke-linecap="round"/><path d="M11 30.945s7.917-19.441 25-21" stroke="#EEB93A" stroke-width="2" stroke-miterlimit="10" stroke-linecap="round"/><path d="M58 29.945v36M76 47.945H39M70.5 35.445L45 60.945M70.5 60.445L45 34.945" stroke="#fff" stroke-width="2" stroke-miterlimit="10" stroke-linecap="round"/></svg>